# AST/ASF file generated using VICON BodyLanguage
# -----------------------------------------------
:version 1.10
:name VICON
:units
  mass 1.0
  length 0.45
  angle deg
:documentation
   .ast/.asf automatically generated from VICON data using
   VICON BodyBuilder and BodyLanguage model FoxedUp or BRILLIANT.MOD
:root
   order TX TY TZ RX RY RZ
   axis XYZ
   position 0 0 0  
   orientation 0 0 0 
:bonedata
  begin
     id 1 
     name lhipjoint
     direction 0.643824 -0.71708 0.266994 
     length 2.52133 
     axis 0 0 0  XYZ
  end
  begin
     id 2 
     name lfemur
     direction 0.34202 -0.939693 0  
     length 7.51824  
     axis 0 0 20  XYZ
    dof rx ry rz
    limits (-160.0 20.0)
           (-70.0 70.0)
           (-60.0 70.0)
  end
  begin
     id 3 
     name ltibia
     direction 0.34202 -0.939693 0   
     length 7.3685   
     axis 0 0 20   XYZ
    dof rx
    limits (-10.0 170.0)
  end
  begin
     id 4 
     name lfoot
     direction 0.105419 -0.289636 0.951314   
     length 2.20972   
     axis -90 7.62852e-016 20   XYZ
    dof rx rz
    limits (-45.0 90.0)
           (-70.0 20.0)
  end
  begin
     id 5 
     name ltoes
     direction 1.53549e-011 -4.21833e-011 1   
     length 1.10139   
     axis -90 7.62852e-016 20   XYZ
    dof rx
    limits (-90.0 20.0)
  end
  begin
     id 6 
     name rhipjoint
     direction -0.608823 -0.743445 0.276811   
     length 2.43192  
     axis 0 0 0  XYZ 
  end
  begin
     id 7 
     name rfemur
     direction -0.34202 -0.939693 0   
     length 7.69715   
     axis 0 0 -20   XYZ
    dof rx ry rz
    limits (-160.0 20.0)
           (-70.0 70.0)
           (-70.0 60.0)
  end
  begin
     id 8 
     name rtibia
     direction -0.34202 -0.939693 0   
     length 7.44924   
     axis 0 0 -20   XYZ
    dof rx
    limits (-10.0 170.0)
 end
 begin
     id 9 
     name rfoot
     direction -0.103614 -0.284677 0.953007   
     length 2.22623  
     axis -90 -7.62852e-016 -20   XYZ
    dof rx rz
    limits (-45.0 90.0)
           (-20.0 70.0)
  end
  begin
     id 10 
     name rtoes
     direction -1.53537e-011 -4.22026e-011 1   
     length 1.11   
     axis -90 -7.62852e-016 -20   XYZ
    dof rx
    limits (-90.0 20.0)
  end
  begin
     id 11 
     name lowerback
     direction -0.0101212 0.99662 -0.0815298   
     length 2.08277   
     axis 0 0 0   XYZ
    dof rx ry rz
    limits (-20.0 45.0)
           (-30.0 30.0)
           (-30.0 30.0)
  end
  begin
     id 12 
     name upperback
     direction 0.024314 0.999591 -0.0150645   
     length 2.08524   
     axis 0 0 0   XYZ
    dof rx ry rz
    limits (-20.0 45.0)
           (-30.0 30.0)
           (-30.0 30.0)
  end
  begin
     id 13 
     name thorax
     direction 0.0285959 0.999323 0.0231357   
     length 2.09645   
     axis 0 0 0   XYZ
    dof rx ry rz
    limits (-20.0 45.0)
           (-30.0 30.0)
           (-30.0 30.0)
  end
  begin
     id 14 
     name lowerneck
     direction -0.065512 0.979301 0.191515   
     length 1.63798   
     axis 0 0 0   XYZ
    dof rx ry rz
    limits (-20.0 45.0)
           (-30.0 30.0)
           (-30.0 30.0)
  end
  begin
     id 15 
     name upperneck
     direction 0.0498479 0.98191 -0.182667   
     length 1.68731   
     axis 0 0 0   XYZ
    dof rx ry rz
    limits (-20.0 45.0)
           (-30.0 30.0)
           (-30.0 30.0)
  end
  begin
     id 16
     name head
     direction 0.0230358 0.996257 -0.0833175  
     length 1.69785  
     axis 0 0 0   XYZ
    dof rx ry rz
    limits (-20.0 45.0)
           (-30.0 30.0)
           (-30.0 30.0)
  end
  begin
     id 17 
     name lclavicle
     direction 0.967963 0.201165 -0.150269  
     length 3.63976  
     axis 0 0 0   XYZ
    dof ry rz
    limits (-20.0 10.0)
           (0.0 20.0)
  end
  begin
     id 18 
     name lhumerus
     direction 1 -4.48954e-011 -2.92837e-028   
     length 5.32462   
     axis 180 -30 -90   XYZ
    dof rx ry rz
    limits (-60.0 90.0)
           (-90.0 90.0)
           (-90.0 90.0)
  end
  begin
     id 19
     name lradius
     direction 1 -4.48958e-011 -6.39511e-027   
     length 3.48402   
     axis 180 -30 -90   XYZ
    dof rx
    limits (-10.0 170.0)
  end
  begin
     id 20
     name lwrist
     direction 1 -4.48975e-011 -1.1413e-026   
     length 1.74201   
     axis 6.88575e-015 90 90   XYZ
    dof ry
    limits (-180.0 0.0)
 end
  begin
     id 21 
     name lhand
     direction 1 -4.48899e-011 -2.28192e-026   
     length 0.572476   
     axis 1.45643e-014 90 90   XYZ
    dof rx rz
    limits (-90.0 90.0)
           (-45.0 45.0)
  end
  begin
     id 22 
     name lfingers
     direction 1 -4.49155e-011 -4.5684e-026   
     length 0.461545   
     axis 2.91283e-014 90 90   XYZ
    dof rx
    limits (0.0 90.0)
  end
  begin
     id 23
     name lthumb
     direction 0.707107 -6.34943e-011 0.707107   
     length 0.662688   
     axis -90 45 -2.25915e-014   XYZ
    dof rx rz
    limits (-45.0 45.0)
           (-45.0 45.0)
  end
  begin
     id 24 
     name rclavicle
     direction -0.964103 0.264019 -0.0282629   
     length 3.54491  
     axis 0 0 0   XYZ 
    dof ry rz
    limits (-10.0 20.0)
           (-20.0 0.0)
  end
  begin
     id 25 
     name rhumerus
     direction -1 -4.48964e-011 -2.45032e-027  
     length 5.33589   
     axis 180 30 90   XYZ
    dof rx ry rz
    limits (-90.0 60.0)
           (-90.0 90.0)
           (-90.0 90.0)
  end
  begin
     id 26 
     name rradius
     direction -1 -4.48987e-011 -1.55093e-027   
     length 3.64134   
     axis 180 30 90   XYZ
    dof rx
    limits (-10.0 170.0)
  end
  begin
     id 27 
     name rwrist
     direction -1 -4.4897e-011 -1.14128e-026   
     length 1.82067   
     axis 6.88575e-015 -90 -90   XYZ
    dof ry
    limits (-180.0 0.0)
  end
  begin
     id 28
     name rhand
     direction -1 -4.49021e-011 -2.28301e-026   
     length 0.734811   
     axis 1.45643e-014 -90 -90   XYZ
    dof rx rz
    limits (-90.0 90.0)
           (-45.0 45.0)
  end
  begin
     id 29
     name rfingers
     direction -1 -4.48862e-011 -4.56319e-026   
     length 0.592424   
     axis 2.91283e-014 -90 -90   XYZ
    dof rx
    limits (0.0 90.0)
  end
  begin
     id 30
     name rthumb
     direction -0.707107 -6.34978e-011 0.707107   
     length 0.850605   
     axis -90 -45 2.25915e-014   XYZ
    dof rx rz
    limits (-45.0 45.0)
           (-45.0 45.0)
  end
:hierarchy
  begin
    root lhipjoint rhipjoint lowerback
    lhipjoint lfemur
    lfemur ltibia
    ltibia lfoot
    lfoot ltoes
    rhipjoint rfemur
    rfemur rtibia
    rtibia rfoot
    rfoot rtoes
    lowerback upperback
    upperback thorax
    thorax lowerneck lclavicle rclavicle
    lowerneck upperneck
    upperneck head
    lclavicle lhumerus
    lhumerus lradius
    lradius lwrist
    lwrist lhand lthumb
    lhand lfingers
    rclavicle rhumerus
    rhumerus rradius
    rradius rwrist
    rwrist rhand rthumb
    rhand rfingers
  end

#!OML:ASF F:\VICON\USERDATA\INSTALL\rory3\rory3.ASF
:FULLY-SPECIFIED
:DEGREES
416
root -0.0500821 17.7387 -4.21534 2.4442 7.78944 -2.37035
lowerback 5.34368 -2.73278 -7.64457
upperback 1.04489 -4.08331 -1.43725
thorax -1.48314 -2.00554 3.03813
lowerneck -14.4613 -14.807 -16.276
upperneck 4.10494 -17.7264 10.3098
head 5.85302 -8.39831 3.79008
rclavicle -9.14409e-015 -3.65764e-014
rhumerus -10.2633 -0.012357 -71.159
rradius 49.4743
rwrist 30.127
rhand -27.3647 -9.20286
rfingers 7.12502
rthumb -0.772375 -39.1812
lclavicle -9.14409e-015 -3.65764e-014
lhumerus -33.1531 12.8864 69.0002
lradius 33.8921
lwrist -5.88347
lhand -8.39798 29.7643
lfingers 7.12502
lthumb 17.5259 58.9943
rfemur -23.1203 -4.41611 19.3183
rtibia 32.914
rfoot -15.4829 -15.2949
rtoes 16.2871
lfemur -1.82478 2.41363 -19.3416
ltibia 22.8433
lfoot -19.8292 11.9568
ltoes -11.9736
417
root -0.0212194 17.744 -4.25241 2.3826 7.8183 -2.37153
lowerback 5.34935 -2.66839 -7.60584
upperback 1.00582 -4.00088 -1.56667
thorax -1.54788 -1.96115 2.88117
lowerneck -14.7386 -14.6378 -16.1663
upperneck 4.38 -17.4768 10.1899
head 5.93203 -8.27379 3.75512
rclavicle -1.25234e-014 -2.22639e-014
rhumerus -8.73514 0.311571 -69.7116
rradius 50.4888
rwrist 29.8421
rhand -27.6886 -9.55025
rfingers 7.12502
rthumb -1.08512 -39.5272
lclavicle -1.25234e-014 -2.22639e-014
lhumerus -33.1135 12.6288 68.976
lradius 33.9987
lwrist -6.05973
lhand -8.34215 29.4431
lfingers 7.12502
lthumb 17.5796 58.6683
rfemur -23.0001 -4.4124 19.1852
rtibia 32.6253
rfoot -15.2486 -15.4391
rtoes 16.0453
lfemur -1.9451 2.31124 -19.4822
ltibia 22.9767
lfoot -19.7445 12.0479
ltoes -12.1145
418
root 0.00467972 17.7495 -4.29164 2.3689 7.83906 -2.42806
lowerback 5.35463 -2.58564 -7.53524
upperback 0.91562 -3.89505 -1.67045
thorax -1.66772 -1.90229 2.7335
lowerneck -14.9328 -14.4127 -16.0812
upperneck 4.5823 -17.158 10.0859
head 5.97107 -8.11848 3.74641
rclavicle 1.19271e-015 9.54166e-015
rhumerus -7.27951 0.621461 -68.1529
rradius 51.4718
rwrist 29.546
rhand -28.0139 -9.62528
rfingers 7.12502
rthumb -1.39938 -39.6004
lclavicle 1.19271e-015 9.54166e-015
lhumerus -33.103 12.2348 68.9721
lradius 34.1001
lwrist -6.32015
lhand -8.28326 29.4723
lfingers 7.12502
lthumb 17.6363 58.6924
rfemur -22.9713 -4.37267 19.1213
rtibia 32.3598
rfoot -15.1654 -15.5898
rtoes 16.3212
lfemur -2.13722 2.45942 -19.5095
ltibia 23.084
lfoot -19.6609 11.8658
ltoes -12.0644
419
root 0.0284294 17.7543 -4.33059 2.34795 7.8922 -2.48469
lowerback 5.31302 -2.50634 -7.45961
upperback 0.86845 -3.78621 -1.7594
thorax -1.71552 -1.84577 2.59386
lowerneck -15.177 -14.1494 -15.9252
upperneck 4.73418 -16.7741 9.86115
head 5.97645 -7.93621 3.70018
rclavicle -6.87795e-014 -3.81667e-014
rhumerus -5.58258 0.487771 -66.6461
rradius 52.054
rwrist 29.7103
rhand -28.4974 -9.9715
rfingers 7.12502
rthumb -1.8663 -39.9431
lclavicle -6.87795e-014 -3.81667e-014
lhumerus -33.0439 11.9656 68.9912
lradius 34.1988
lwrist -6.58969
lhand -8.22673 29.4305
lfingers 7.12502
lthumb 17.6907 58.6457
rfemur -22.9445 -4.2786 19.059
rtibia 32.1212
rfoot -15.0982 -15.8083
rtoes 16.4034
lfemur -2.30947 2.65634 -19.51
ltibia 23.1519
lfoot -19.6186 11.5506
ltoes -11.6734
420
root 0.0545958 17.7611 -4.36494 2.31086 8.05916 -2.51432
lowerback 5.24138 -2.46057 -7.32391
upperback 0.857437 -3.71425 -1.88247
thorax -1.7109 -1.81071 2.38505
lowerneck -15.6573 -13.8539 -15.7603
upperneck 5.11995 -16.3208 9.60187
head 6.0826 -7.71578 3.63334
rclavicle 2.46493e-014 7.95139e-015
rhumerus -3.6576 -0.115568 -65.306
rradius 52.3105
rwrist 29.9964
rhand -29.082 -10.1834
rfingers 7.12502
rthumb -2.43086 -40.1493
lclavicle 2.46493e-014 7.95139e-015
lhumerus -32.9319 11.6214 69.0185
lradius 34.2718
lwrist -6.5727
lhand -8.30249 29.2804
lfingers 7.12502
lthumb 17.6178 58.5022
rfemur -22.8227 -4.22845 18.9561
rtibia 31.8634
rfoot -15.0882 -16.0239
rtoes 16.6907
lfemur -2.45887 2.79337 -19.5531
ltibia 23.2292
lfoot -19.5455 11.2576
ltoes -11.4824
421
root 0.0805898 17.767 -4.39681 2.26028 8.16037 -2.50816
lowerback 5.19825 -2.38443 -7.18918
upperback 0.830095 -3.60659 -2.04285
thorax -1.74408 -1.7563 2.13863
lowerneck -16.2161 -13.5454 -15.732
upperneck 5.64796 -15.8441 9.54176
head 6.27584 -7.47305 3.64332
rclavicle 1.0138e-014 1.59028e-014
rhumerus -1.86715 -0.660259 -63.9531
rradius 52.7218
rwrist 30.1531
rhand -29.7792 -10.4171
rfingers 7.12502
rthumb -3.10427 -40.3743
lclavicle 1.0138e-014 1.59028e-014
lhumerus -32.8337 11.2299 69.0043
lradius 34.3371
lwrist -6.50858
lhand -8.39831 29.1349
lfingers 7.12502
lthumb 17.5256 58.365
rfemur -22.6964 -4.25375 18.8278
rtibia 31.6076
rfoot -14.9869 -16.1334
rtoes 16.9007
lfemur -2.55014 2.77198 -19.6671
ltibia 23.2817
lfoot -19.4476 11.1944
ltoes -11.5908
422
root 0.102493 17.7723 -4.42801 2.21733 8.23924 -2.60655
lowerback 5.16991 -2.28389 -7.00375
upperback 0.770133 -3.4663 -2.14882
thorax -1.82054 -1.68412 1.92021
lowerneck -16.536 -13.2904 -15.7112
upperneck 5.89967 -15.4624 9.50605
head 6.35741 -7.28192 3.66774
rclavicle 2.80286e-014 3.02153e-014
rhumerus -0.226297 -1.09383 -62.514
rradius 53.2762
rwrist 30.1801
rhand -30.3006 -10.7926
rfingers 7.12502
rthumb -3.60776 -40.7418
lclavicle 2.80286e-014 3.02153e-014
lhumerus -32.7483 10.842 68.9869
lradius 34.3596
lwrist -6.53168
lhand -8.55162 29.0418
lfingers 7.12502
lthumb 17.378 58.2849
rfemur -22.5879 -4.18367 18.8174
rtibia 31.3381
rfoot -14.9537 -16.2578
rtoes 17.319
lfemur -2.65856 2.73342 -19.6501
ltibia 23.3395
lfoot -19.3687 11.1475
ltoes -11.5755
423
root 0.122867 17.7768 -4.45853 2.17059 8.50801 -2.65598
lowerback 5.1887 -2.23412 -6.86512
upperback 0.69551 -3.40101 -2.24993
thorax -1.92822 -1.64784 1.73913
lowerneck -16.7135 -13.0382 -15.6439
upperneck 6.06061 -15.0979 9.36468
head 6.37664 -7.10975 3.65938
rclavicle -2.38542e-014 1.43125e-014
rhumerus 1.41286 -1.50019 -61.0136
rradius 53.7492
rwrist 30.1738
rhand -30.3941 -11.2272
rfingers 7.12502
rthumb -3.69805 -41.1748
lclavicle -2.38542e-014 1.43125e-014
lhumerus -32.6862 10.5059 68.9601
lradius 34.2925
lwrist -6.58968
lhand -8.65466 28.8964
lfingers 7.12502
lthumb 17.2788 58.1482
rfemur -22.4486 -4.20943 18.7453
rtibia 31.072
rfoot -15.0051 -16.4445
rtoes 17.72
lfemur -2.78234 2.6851 -19.6446
ltibia 23.4129
lfoot -19.3302 10.8307
ltoes -11.1681
424
root 0.144219 17.7807 -4.48958 2.10461 8.7737 -2.74876
lowerback 5.18155 -2.19453 -6.63701
upperback 0.664776 -3.33964 -2.3673
thorax -1.98104 -1.6171 1.48954
lowerneck -17.1201 -12.7302 -15.5117
upperneck 6.34429 -14.6464 9.24906
head 6.45963 -6.88631 3.65018
rclavicle 2.88238e-014 -6.36111e-015
rhumerus 3.17071 -2.01109 -59.6097
rradius 54.1045
rwrist 30.2245
rhand -30.277 -11.4199
rfingers 7.12502
rthumb -3.58491 -41.3695
lclavicle 2.88238e-014 -6.36111e-015
lhumerus -32.5704 10.3751 68.8667
lradius 34.2624
lwrist -6.65396
lhand -8.41316 29.1601
lfingers 7.12502
lthumb 17.5113 58.3914
rfemur -22.3163 -4.25112 18.7149
rtibia 30.8119
rfoot -14.9025 -16.6789
rtoes 17.82
lfemur -2.92558 2.77414 -19.5687
ltibia 23.5318
lfoot -19.3575 10.3524
ltoes -10.5054
425
root 0.162479 17.7829 -4.52132 2.01657 9.00768 -2.83361
lowerback 5.14962 -2.1387 -6.45981
upperback 0.696558 -3.25299 -2.46348
thorax -1.95203 -1.57697 1.28552
lowerneck -17.6302 -12.4667 -15.4632
upperneck 6.56021 -14.2342 9.27368
head 6.56007 -6.67049 3.68866
rclavicle 1.53064e-014 2.06736e-014
rhumerus 5.06418 -2.5723 -58.2288
rradius 54.3033
rwrist 30.2204
rhand -30.5837 -11.6975
rfingers 7.12502
rthumb -3.8811 -41.6419
lclavicle 1.53064e-014 2.06736e-014
lhumerus -32.338 10.2866 68.8093
lradius 34.2366
lwrist -6.68495
lhand -8.27693 29.4137
lfingers 7.12502
lthumb 17.6424 58.6333
rfemur -22.1887 -4.21824 18.6757
rtibia 30.6035
rfoot -14.8152 -16.987
rtoes 17.5713
lfemur -3.04656 2.88427 -19.4919
ltibia 23.6473
lfoot -19.3904 9.87871
ltoes -9.91481
